<svg width="141" height="141" viewBox="0 0 141 141" fill="none" xmlns="http://www.w3.org/2000/svg">
<path d="M3.50553 127.704C5.44158 127.704 7.01105 126.134 7.01105 124.198C7.01105 122.262 5.44158 120.693 3.50553 120.693C1.56948 120.693 0 122.262 0 124.198C0 126.134 1.56948 127.704 3.50553 127.704Z" fill="#7FADF0"/>
<path d="M3.50553 97.4038C5.44158 97.4038 7.01105 95.8343 7.01105 93.8983C7.01105 91.9622 5.44158 90.3928 3.50553 90.3928C1.56948 90.3928 0 91.9622 0 93.8983C0 95.8343 1.56948 97.4038 3.50553 97.4038Z" fill="#7FADF0"/>
<path d="M3.50553 67.3564C5.44158 67.3564 7.01105 65.7869 7.01105 63.8509C7.01105 61.9148 5.44158 60.3453 3.50553 60.3453C1.56948 60.3453 0 61.9148 0 63.8509C0 65.7869 1.56948 67.3564 3.50553 67.3564Z" fill="#7FADF0"/>
<path d="M3.50553 37.0601C5.44158 37.0601 7.01105 35.4906 7.01105 33.5546C7.01105 31.6185 5.44158 30.0491 3.50553 30.0491C1.56948 30.0491 0 31.6185 0 33.5546C0 35.4906 1.56948 37.0601 3.50553 37.0601Z" fill="#7FADF0"/>
<path d="M3.50846 7.01337C5.44451 7.01337 7.01398 5.44389 7.01398 3.50785C7.01398 1.5718 5.44451 0.00231934 3.50846 0.00231934C1.57241 0.00231934 0.00292969 1.5718 0.00292969 3.50785C0.00292969 5.44389 1.57241 7.01337 3.50846 7.01337Z" fill="#7FADF0"/>
<path d="M133.465 127.701C135.402 127.701 136.971 126.132 136.971 124.196C136.971 122.26 135.402 120.69 133.465 120.69C131.529 120.69 129.96 122.26 129.96 124.196C129.96 126.132 131.529 127.701 133.465 127.701Z" fill="#7FADF0"/>
<path d="M133.465 97.4015C135.402 97.4015 136.971 95.832 136.971 93.896C136.971 91.9599 135.402 90.3904 133.465 90.3904C131.529 90.3904 129.96 91.9599 129.96 93.896C129.96 95.832 131.529 97.4015 133.465 97.4015Z" fill="#7FADF0"/>
<path d="M133.465 67.3542C135.402 67.3542 136.971 65.7847 136.971 63.8487C136.971 61.9126 135.402 60.3431 133.465 60.3431C131.529 60.3431 129.96 61.9126 129.96 63.8487C129.96 65.7847 131.529 67.3542 133.465 67.3542Z" fill="#7FADF0"/>
<path d="M133.465 37.0578C135.402 37.0578 136.971 35.4883 136.971 33.5523C136.971 31.6162 135.402 30.0468 133.465 30.0468C131.529 30.0468 129.96 31.6162 129.96 33.5523C129.96 35.4883 131.529 37.0578 133.465 37.0578Z" fill="#7FADF0"/>
<path d="M133.465 7.01105C135.401 7.01105 136.97 5.44158 136.97 3.50553C136.97 1.56948 135.401 0 133.465 0C131.528 0 129.959 1.56948 129.959 3.50553C129.959 5.44158 131.528 7.01105 133.465 7.01105Z" fill="#7FADF0"/>
<path d="M100.914 127.701C102.85 127.701 104.419 126.132 104.419 124.196C104.419 122.26 102.85 120.69 100.914 120.69C98.9777 120.69 97.4082 122.26 97.4082 124.196C97.4082 126.132 98.9777 127.701 100.914 127.701Z" fill="#7FADF0"/>
<path d="M100.914 97.4015C102.85 97.4015 104.419 95.832 104.419 93.896C104.419 91.9599 102.85 90.3904 100.914 90.3904C98.9777 90.3904 97.4082 91.9599 97.4082 93.896C97.4082 95.832 98.9777 97.4015 100.914 97.4015Z" fill="#7FADF0"/>
<path d="M100.914 67.3542C102.85 67.3542 104.419 65.7847 104.419 63.8487C104.419 61.9126 102.85 60.3431 100.914 60.3431C98.9777 60.3431 97.4082 61.9126 97.4082 63.8487C97.4082 65.7847 98.9777 67.3542 100.914 67.3542Z" fill="#7FADF0"/>
<path d="M100.914 37.0578C102.85 37.0578 104.419 35.4883 104.419 33.5523C104.419 31.6162 102.85 30.0468 100.914 30.0468C98.9777 30.0468 97.4082 31.6162 97.4082 33.5523C97.4082 35.4883 98.9777 37.0578 100.914 37.0578Z" fill="#7FADF0"/>
<path d="M100.913 7.01105C102.849 7.01105 104.418 5.44158 104.418 3.50553C104.418 1.56948 102.849 0 100.913 0C98.9767 0 97.4072 1.56948 97.4072 3.50553C97.4072 5.44158 98.9767 7.01105 100.913 7.01105Z" fill="#7FADF0"/>
<path d="M68.3639 127.701C70.3 127.701 71.8695 126.132 71.8695 124.196C71.8695 122.26 70.3 120.69 68.3639 120.69C66.4279 120.69 64.8584 122.26 64.8584 124.196C64.8584 126.132 66.4279 127.701 68.3639 127.701Z" fill="#7FADF0"/>
<path d="M68.3639 97.4015C70.3 97.4015 71.8695 95.832 71.8695 93.896C71.8695 91.9599 70.3 90.3904 68.3639 90.3904C66.4279 90.3904 64.8584 91.9599 64.8584 93.896C64.8584 95.832 66.4279 97.4015 68.3639 97.4015Z" fill="#7FADF0"/>
<path d="M68.3639 67.3542C70.3 67.3542 71.8695 65.7847 71.8695 63.8487C71.8695 61.9126 70.3 60.3431 68.3639 60.3431C66.4279 60.3431 64.8584 61.9126 64.8584 63.8487C64.8584 65.7847 66.4279 67.3542 68.3639 67.3542Z" fill="#7FADF0"/>
<path d="M68.3639 37.0578C70.3 37.0578 71.8695 35.4883 71.8695 33.5523C71.8695 31.6162 70.3 30.0468 68.3639 30.0468C66.4279 30.0468 64.8584 31.6162 64.8584 33.5523C64.8584 35.4883 66.4279 37.0578 68.3639 37.0578Z" fill="#7FADF0"/>
<path d="M68.362 7.01105C70.298 7.01105 71.8675 5.44158 71.8675 3.50553C71.8675 1.56948 70.298 0 68.362 0C66.4259 0 64.8564 1.56948 64.8564 3.50553C64.8564 5.44158 66.4259 7.01105 68.362 7.01105Z" fill="#7FADF0"/>
<path d="M35.8122 127.701C37.7482 127.701 39.3177 126.132 39.3177 124.196C39.3177 122.26 37.7482 120.69 35.8122 120.69C33.8761 120.69 32.3066 122.26 32.3066 124.196C32.3066 126.132 33.8761 127.701 35.8122 127.701Z" fill="#7FADF0"/>
<path d="M35.8122 97.4015C37.7482 97.4015 39.3177 95.832 39.3177 93.896C39.3177 91.9599 37.7482 90.3904 35.8122 90.3904C33.8761 90.3904 32.3066 91.9599 32.3066 93.896C32.3066 95.832 33.8761 97.4015 35.8122 97.4015Z" fill="#7FADF0"/>
<path d="M35.8122 67.3542C37.7482 67.3542 39.3177 65.7847 39.3177 63.8487C39.3177 61.9126 37.7482 60.3431 35.8122 60.3431C33.8761 60.3431 32.3066 61.9126 32.3066 63.8487C32.3066 65.7847 33.8761 67.3542 35.8122 67.3542Z" fill="#7FADF0"/>
<path d="M35.8122 37.0578C37.7482 37.0578 39.3177 35.4883 39.3177 33.5523C39.3177 31.6162 37.7482 30.0468 35.8122 30.0468C33.8761 30.0468 32.3066 31.6162 32.3066 33.5523C32.3066 35.4883 33.8761 37.0578 35.8122 37.0578Z" fill="#7FADF0"/>
<path d="M35.8102 7.01105C37.7463 7.01105 39.3157 5.44158 39.3157 3.50553C39.3157 1.56948 37.7463 0 35.8102 0C33.8742 0 32.3047 1.56948 32.3047 3.50553C32.3047 5.44158 33.8742 7.01105 35.8102 7.01105Z" fill="#7FADF0"/>
</svg>
