<svg width="183" height="34" viewBox="0 0 183 34" fill="none" xmlns="http://www.w3.org/2000/svg">
<path fill-rule="evenodd" clip-rule="evenodd" d="M9.95594 9.36389C8.82579 10.5108 7.58579 11.7692 6.21521 13.1398C-3.25659 22.6116 -0.319274 22.627 4.60288 22.6529C7.58193 22.6686 11.288 22.6881 13.4101 24.8102C19.0385 30.4386 31.9394 38.2065 31.9394 28.3442C31.9394 24.619 33.5639 22.4299 34.9721 20.5322C37.2921 17.406 39.0249 15.0709 31.9394 7.96207C21.5794 -2.43198 21.363 -2.21233 9.95594 9.36389ZM22.2862 22.509C25.8266 22.509 28.6967 19.6389 28.6967 16.0985C28.6967 12.5581 25.8266 9.68798 22.2862 9.68798C18.7458 9.68798 15.8757 12.5581 15.8757 16.0985C15.8757 19.6389 18.7458 22.509 22.2862 22.509Z" fill="url(#paint0_linear)"/>
<path d="M55.8754 7.87736H59.5658V19.2126C59.5658 20.4853 59.2618 21.599 58.6539 22.5535C58.0516 23.508 57.2078 24.2524 56.1226 24.7865C55.0374 25.3149 53.7732 25.5791 52.33 25.5791C50.8811 25.5791 49.6141 25.3149 48.5289 24.7865C47.4436 24.2524 46.5999 23.508 45.9976 22.5535C45.3953 21.599 45.0942 20.4853 45.0942 19.2126V7.87736H48.7845V18.8972C48.7845 19.562 48.9294 20.1529 49.2192 20.67C49.5146 21.187 49.9294 21.5933 50.4635 21.8887C50.9976 22.1842 51.6198 22.3319 52.33 22.3319C53.0459 22.3319 53.6681 22.1842 54.1965 21.8887C54.7306 21.5933 55.1425 21.187 55.4323 20.67C55.7277 20.1529 55.8754 19.562 55.8754 18.8972V7.87736ZM62.602 25.3319V7.87736H69.5906C70.8747 7.87736 71.9458 8.0677 72.8037 8.44839C73.6617 8.82907 74.3066 9.35748 74.7384 10.0336C75.1702 10.7041 75.3861 11.4768 75.3861 12.3518C75.3861 13.0336 75.2497 13.633 74.977 14.1501C74.7043 14.6615 74.3293 15.0819 73.852 15.4115C73.3804 15.7353 72.8406 15.9654 72.2327 16.1018V16.2722C72.8975 16.3007 73.5196 16.4882 74.0992 16.8347C74.6844 17.1813 75.1588 17.6671 75.5225 18.2921C75.8861 18.9115 76.0679 19.6501 76.0679 20.508C76.0679 21.4342 75.8378 22.2609 75.3776 22.9882C74.923 23.7098 74.2497 24.2808 73.3577 24.7012C72.4656 25.1217 71.3662 25.3319 70.0594 25.3319H62.602ZM66.2923 22.3149H69.3009C70.3293 22.3149 71.0793 22.1188 71.5509 21.7268C72.0225 21.3291 72.2583 20.8007 72.2583 20.1416C72.2583 19.6586 72.1418 19.2325 71.9088 18.8632C71.6759 18.4938 71.3435 18.2041 70.9117 17.9938C70.4855 17.7836 69.977 17.6785 69.3861 17.6785H66.2923V22.3149ZM66.2923 15.1813H69.0281C69.5338 15.1813 69.9827 15.0933 70.3747 14.9171C70.7725 14.7353 71.085 14.4796 71.3122 14.1501C71.5452 13.8205 71.6617 13.4257 71.6617 12.9654C71.6617 12.3348 71.4372 11.8262 70.9884 11.4399C70.5452 11.0535 69.9145 10.8603 69.0963 10.8603H66.2923V15.1813ZM81.4777 25.3319H77.5232L83.5487 7.87736H88.3044L94.3215 25.3319H90.3669L85.9948 11.866H85.8584L81.4777 25.3319ZM81.2306 18.4711H90.5715V21.3518H81.2306V18.4711ZM108.165 25.3319H101.977V7.87736H108.216C109.971 7.87736 111.483 8.2268 112.75 8.92566C114.017 9.61884 114.991 10.616 115.673 11.9171C116.361 13.2183 116.704 14.7751 116.704 16.5876C116.704 18.4058 116.361 19.9683 115.673 21.2751C114.991 22.5819 114.011 23.5847 112.733 24.2836C111.46 24.9825 109.937 25.3319 108.165 25.3319ZM105.667 22.17H108.011C109.102 22.17 110.02 21.9768 110.764 21.5904C111.514 21.1984 112.076 20.5933 112.451 19.7751C112.832 18.9512 113.022 17.8887 113.022 16.5876C113.022 15.2978 112.832 14.2438 112.451 13.4257C112.076 12.6075 111.517 12.0052 110.772 11.6188C110.028 11.2325 109.111 11.0393 108.02 11.0393H105.667V22.17ZM125.336 25.5876C123.989 25.5876 122.83 25.3149 121.858 24.7694C120.892 24.2183 120.148 23.4399 119.625 22.4342C119.103 21.4228 118.841 20.2268 118.841 18.8461C118.841 17.4995 119.103 16.3177 119.625 15.3007C120.148 14.2836 120.884 13.491 121.833 12.9228C122.787 12.3546 123.907 12.0705 125.191 12.0705C126.054 12.0705 126.858 12.2098 127.603 12.4882C128.353 12.7609 129.006 13.1728 129.563 13.724C130.125 14.2751 130.563 14.9683 130.875 15.8035C131.188 16.633 131.344 17.6046 131.344 18.7183V19.7154H120.29V17.4654H127.927C127.927 16.9427 127.813 16.4796 127.586 16.0762C127.358 15.6728 127.043 15.3575 126.64 15.1302C126.242 14.8972 125.779 14.7808 125.25 14.7808C124.699 14.7808 124.211 14.9086 123.785 15.1643C123.364 15.4143 123.035 15.7524 122.796 16.1785C122.557 16.599 122.435 17.0677 122.429 17.5847V19.724C122.429 20.3717 122.549 20.9313 122.787 21.4029C123.032 21.8745 123.375 22.2382 123.819 22.4938C124.262 22.7495 124.787 22.8774 125.395 22.8774C125.799 22.8774 126.168 22.8205 126.503 22.7069C126.839 22.5933 127.125 22.4228 127.364 22.1955C127.603 21.9683 127.785 21.6899 127.91 21.3603L131.267 21.5819C131.097 22.3887 130.748 23.0933 130.219 23.6955C129.696 24.2921 129.02 24.758 128.191 25.0933C127.367 25.4228 126.415 25.5876 125.336 25.5876ZM144.606 15.974L141.282 16.1785C141.225 15.8944 141.103 15.6387 140.915 15.4115C140.728 15.1785 140.481 14.9938 140.174 14.8575C139.873 14.7154 139.512 14.6444 139.091 14.6444C138.529 14.6444 138.054 14.7637 137.668 15.0024C137.282 15.2353 137.089 15.5478 137.089 15.9399C137.089 16.2524 137.214 16.5166 137.464 16.7325C137.714 16.9484 138.142 17.1217 138.75 17.2524L141.12 17.7296C142.392 17.991 143.341 18.4115 143.966 18.991C144.591 19.5705 144.904 20.3319 144.904 21.2751C144.904 22.133 144.651 22.8859 144.145 23.5336C143.645 24.1813 142.958 24.687 142.083 25.0507C141.214 25.4086 140.211 25.5876 139.074 25.5876C137.341 25.5876 135.961 25.2268 134.932 24.5052C133.91 23.7779 133.31 22.7893 133.134 21.5393L136.705 21.3518C136.813 21.8802 137.074 22.2836 137.489 22.562C137.904 22.8348 138.435 22.9711 139.083 22.9711C139.719 22.9711 140.231 22.849 140.617 22.6046C141.009 22.3546 141.208 22.0336 141.214 21.6416C141.208 21.312 141.069 21.0421 140.796 20.8319C140.523 20.616 140.103 20.4512 139.535 20.3376L137.267 19.8859C135.989 19.6302 135.037 19.187 134.412 18.5563C133.793 17.9257 133.483 17.1217 133.483 16.1444C133.483 15.3035 133.711 14.5791 134.165 13.9711C134.625 13.3632 135.27 12.8944 136.1 12.5649C136.935 12.2353 137.912 12.0705 139.032 12.0705C140.685 12.0705 141.986 12.42 142.935 13.1188C143.89 13.8177 144.446 14.7694 144.606 15.974ZM147.19 25.3319V12.241H150.821V25.3319H147.19ZM149.022 10.5535C148.483 10.5535 148.02 10.3745 147.633 10.0166C147.247 9.65293 147.054 9.21827 147.054 8.71259C147.054 8.21259 147.247 7.78361 147.633 7.42566C148.02 7.06202 148.48 6.8802 149.014 6.8802C149.559 6.8802 150.022 7.06202 150.403 7.42566C150.79 7.78361 150.983 8.21259 150.983 8.71259C150.983 9.21827 150.79 9.65293 150.403 10.0166C150.022 10.3745 149.562 10.5535 149.022 10.5535ZM159.627 30.4285C158.451 30.4285 157.442 30.2694 156.601 29.9512C155.766 29.633 155.101 29.2041 154.607 28.6643C154.113 28.1245 153.792 27.5251 153.644 26.866L157.002 26.4143C157.104 26.6529 157.266 26.8774 157.488 27.0876C157.709 27.3035 158.002 27.4796 158.366 27.616C158.735 27.7524 159.184 27.8205 159.712 27.8205C160.502 27.8205 161.152 27.633 161.664 27.258C162.181 26.883 162.439 26.2666 162.439 25.4086V23.0137H162.286C162.127 23.3774 161.888 23.7211 161.57 24.045C161.252 24.3688 160.843 24.633 160.343 24.8376C159.843 25.0421 159.246 25.1444 158.553 25.1444C157.57 25.1444 156.675 24.9171 155.868 24.4626C155.067 24.0024 154.428 23.3007 153.951 22.3575C153.479 21.4086 153.243 20.2097 153.243 18.7609C153.243 17.2779 153.485 16.0393 153.968 15.045C154.451 14.0507 155.093 13.3063 155.894 12.812C156.701 12.3177 157.584 12.0705 158.544 12.0705C159.277 12.0705 159.891 12.1955 160.385 12.4455C160.88 12.6899 161.277 12.9967 161.579 13.366C161.885 13.7296 162.121 14.0876 162.286 14.4399H162.422V12.241H166.027V25.4598C166.027 26.5507 165.755 27.4626 165.209 28.1955C164.664 28.9342 163.908 29.491 162.942 29.866C161.982 30.241 160.877 30.4285 159.627 30.4285ZM159.704 22.4171C160.289 22.4171 160.783 22.2723 161.187 21.9825C161.596 21.687 161.908 21.2666 162.124 20.7211C162.346 20.17 162.456 19.5109 162.456 18.7438C162.456 17.9768 162.348 17.312 162.133 16.7495C161.917 16.1813 161.604 15.741 161.195 15.4285C160.786 15.116 160.289 14.9597 159.704 14.9597C159.107 14.9597 158.604 15.1217 158.195 15.4455C157.786 15.7637 157.476 16.2069 157.266 16.7751C157.056 17.3433 156.951 17.9995 156.951 18.7438C156.951 19.4995 157.056 20.1529 157.266 20.7041C157.482 21.2495 157.792 21.6728 158.195 21.974C158.604 22.2694 159.107 22.4171 159.704 22.4171ZM172.547 17.7637V25.3319H168.917V12.241H172.377V14.5507H172.53C172.82 13.7893 173.306 13.187 173.988 12.7438C174.669 12.295 175.496 12.0705 176.468 12.0705C177.377 12.0705 178.169 12.2694 178.846 12.6671C179.522 13.0649 180.047 13.633 180.422 14.3717C180.797 15.1046 180.985 15.9796 180.985 16.9967V25.3319H177.354V17.6444C177.36 16.8433 177.155 16.2183 176.741 15.7694C176.326 15.3149 175.755 15.0876 175.027 15.0876C174.539 15.0876 174.107 15.1927 173.732 15.4029C173.363 15.6132 173.073 15.92 172.863 16.3234C172.658 16.7211 172.553 17.2012 172.547 17.7637Z" fill="#1565D8"/>
<defs>
<linearGradient id="paint0_linear" x1="-3.39121e-07" y1="1.30583" x2="7.99806" y2="35.5231" gradientUnits="userSpaceOnUse">
<stop stop-color="#3A7FE2"/>
<stop offset="1" stop-color="#0B4AA4"/>
</linearGradient>
</defs>
</svg>
