<svg width="70" height="70" viewBox="0 0 70 70" fill="none" xmlns="http://www.w3.org/2000/svg">
<path d="M59.0625 36.75V22.9688L67.8125 30.5156L59.0625 36.75ZM10.9375 36.75V22.9688L2.1875 30.5156L10.9375 36.75Z" fill="#F2F4F5"/>
<path opacity="0.14" d="M59.0625 36.75V22.9688L67.8125 30.5156L59.0625 36.75ZM10.9375 36.75V22.9688L2.1875 30.5156L10.9375 36.75Z" fill="#000064"/>
<path d="M44.9531 44.7344C40.6875 40.4688 29.4219 40.4688 25.1562 44.7344L24.0625 45.8281L2.1875 30.625V67.8125H67.8125V30.625L46.0469 45.8281L44.9531 44.7344Z" fill="#F2F4F5"/>
<path d="M2.1875 30.625L23.9531 45.8281M67.8125 30.625V67.8125H2.1875V30.625H67.8125ZM46.0469 45.8281L67.8125 30.625L46.0469 45.8281Z" stroke="#4D71AC" stroke-width="2" stroke-miterlimit="10" stroke-linecap="round" stroke-linejoin="round"/>
<path d="M2.1875 67.8125L25.0469 44.7344C29.3125 40.4687 40.5781 40.4687 44.8438 44.7344L67.8125 67.8125" stroke="#4D71AC" stroke-width="2" stroke-miterlimit="10" stroke-linecap="round" stroke-linejoin="round"/>
<path d="M25.0469 44.7344C29.3125 40.4688 40.5781 40.4688 44.8438 44.7344L45.9375 45.8281L59.0625 36.75V2.1875H10.9375V36.75L23.9531 45.8281L25.0469 44.7344Z" fill="#EEFCFF"/>
<path d="M19.6875 30.625H50.3125M10.9375 23.0781L2.1875 30.625L10.9375 23.0781ZM59.0625 23.0781L67.8125 30.625L59.0625 23.0781ZM59.0625 36.75V2.1875H10.9375V36.75H59.0625ZM19.6875 13.125H30.625H19.6875ZM26.25 21.875H50.3125H26.25Z" stroke="#4D71AC" stroke-width="2" stroke-miterlimit="10" stroke-linecap="round" stroke-linejoin="round"/>
</svg>
