<svg width="430" height="430" viewBox="0 0 430 430" fill="none" xmlns="http://www.w3.org/2000/svg">
<path d="M215 367.702C307.091 367.702 381.746 363.343 381.746 357.966C381.746 352.59 307.091 348.231 215 348.231C122.909 348.231 48.2549 352.59 48.2549 357.966C48.2549 363.343 122.909 367.702 215 367.702Z" fill="#F5F5F5"/>
<path d="M327.23 350.889L320.332 350.785L320.307 334.772L327.195 334.875L327.23 350.889Z" fill="#FFB573"/>
<path d="M362.249 350.914H355.344L353.297 334.927H360.203L362.249 350.914Z" fill="#FFB573"/>
<path d="M354.621 350.115H363.04C363.175 350.114 363.306 350.162 363.41 350.248C363.513 350.335 363.584 350.455 363.608 350.588L364.709 356.728C364.732 356.88 364.723 357.035 364.68 357.183C364.638 357.331 364.564 357.468 364.463 357.584C364.362 357.7 364.237 357.793 364.097 357.856C363.957 357.919 363.805 357.951 363.651 357.949C360.942 357.906 358.972 357.743 355.558 357.743C353.46 357.743 347.13 357.966 344.232 357.966C341.334 357.966 341.076 355.103 342.271 354.836C347.638 353.675 351.731 352.075 353.451 350.536C353.775 350.255 354.192 350.104 354.621 350.115Z" fill="#263238"/>
<path d="M319.997 350.02L327.531 350.14C327.666 350.139 327.796 350.188 327.897 350.277C327.999 350.365 328.064 350.488 328.081 350.622L329.027 356.771C329.048 356.924 329.036 357.079 328.991 357.226C328.947 357.374 328.871 357.51 328.769 357.625C328.667 357.74 328.541 357.832 328.4 357.894C328.259 357.956 328.106 357.986 327.952 357.984C325.235 357.898 321.322 357.674 317.907 357.622C313.917 357.562 313.47 357.726 308.791 357.622C305.962 357.579 305.351 354.707 306.573 354.466C312.051 353.365 313.453 353.305 318.303 350.502C318.815 350.193 319.4 350.027 319.997 350.02Z" fill="#263238"/>
<path d="M323.059 145.452C321.206 150.431 319.096 155.311 316.738 160.072C315.56 162.445 314.321 164.81 312.962 167.132C311.615 169.504 310.139 171.801 308.542 174.012L307.243 175.732C306.444 176.751 305.446 177.596 304.311 178.218C303.126 178.858 301.805 179.206 300.458 179.233C299.355 179.267 298.255 179.122 297.199 178.803C295.553 178.304 293.995 177.552 292.58 176.575C291.373 175.742 290.224 174.829 289.14 173.84C285.16 170.114 281.69 165.878 278.82 161.241L282.914 158.051C284.677 159.771 286.535 161.491 288.409 163.108C290.219 164.711 292.123 166.204 294.111 167.58C295.018 168.219 295.969 168.794 296.958 169.3C297.725 169.705 298.548 169.994 299.4 170.16C299.583 170.212 299.777 170.212 299.959 170.16C300.019 170.117 299.899 170.108 299.796 170.16C299.693 170.211 299.667 170.16 299.727 170.091L300.63 168.655C303.138 164.435 305.392 160.07 307.381 155.583C309.454 151.05 311.449 146.329 313.298 141.771L323.059 145.452Z" fill="#FFB573"/>
<path d="M325.639 140.945C327.918 147.137 315.964 165.223 315.964 165.223L302.204 157.604C304.324 151.964 307.046 146.569 310.322 141.513C315.302 134.28 323.154 134.16 325.639 140.945Z" fill="#1565D8"/>
<path opacity="0.5" d="M325.639 140.945C327.918 147.137 315.964 165.223 315.964 165.223L302.204 157.604C304.324 151.964 307.046 146.569 310.322 141.513C315.302 134.28 323.154 134.16 325.639 140.945Z" fill="white"/>
<path opacity="0.2" d="M318.011 147.731C315.379 149.064 309.411 155.617 307.613 160.588L315.964 165.223C318.816 160.829 321.34 156.23 323.515 151.463C321.64 149.64 319.404 147.06 318.011 147.731Z" fill="#1565D8"/>
<path d="M283.361 158.163L279.164 154.361L275.199 161.147C275.199 161.147 279.233 165.877 283.696 163.581L284.298 161.861C284.524 161.221 284.556 160.528 284.389 159.87C284.222 159.212 283.864 158.618 283.361 158.163Z" fill="#FFB573"/>
<path d="M272.388 151.506L271.227 158.102L275.2 161.147L279.164 154.361L272.388 151.506Z" fill="#FFB573"/>
<path opacity="0.2" d="M320.307 334.772L320.324 343.028L327.212 343.14L327.204 334.884L320.307 334.772Z" fill="black"/>
<path opacity="0.2" d="M360.203 334.936H353.297L354.363 343.174H361.26L360.203 334.936Z" fill="black"/>
<path d="M356.169 136.138C350.459 162.798 353.77 190.464 353.469 196.132L316.549 195.805C309.162 156.916 317.495 136.138 317.495 136.138C317.495 136.138 319.826 135.527 323.016 134.986C324.014 134.814 325.097 134.65 326.224 134.521C326.843 134.444 327.48 134.384 328.125 134.323C333.355 134.073 338.595 134.122 343.82 134.47C344.809 134.521 345.815 134.607 346.787 134.702C347.758 134.796 348.584 134.9 349.418 135.011C353.219 135.51 356.169 136.138 356.169 136.138Z" fill="#1565D8"/>
<path opacity="0.5" d="M356.169 136.138C350.459 162.798 353.77 190.464 353.469 196.132L316.549 195.805C309.162 156.916 317.495 136.138 317.495 136.138C317.495 136.138 319.826 135.527 323.016 134.986C324.014 134.814 325.097 134.65 326.224 134.521C326.843 134.444 327.48 134.384 328.125 134.323C333.355 134.073 338.595 134.122 343.82 134.47C344.809 134.521 345.815 134.607 346.787 134.702C347.758 134.796 348.584 134.9 349.418 135.011C353.219 135.51 356.169 136.138 356.169 136.138Z" fill="white"/>
<path opacity="0.2" d="M349.065 147.92C348.566 150.5 350.08 161.998 352.909 164.673C353.021 160.949 353.253 157.062 353.631 153.071L349.065 147.92Z" fill="black"/>
<path d="M342.417 116.779C341.385 121.819 340.31 131.064 343.819 134.47C341.05 137.17 337.429 140.292 331.435 140.447C325.441 140.601 326.516 136.491 328.124 134.323C333.766 133.033 333.663 128.854 332.717 124.924L342.417 116.779Z" fill="#FFB573"/>
<path d="M342.796 132.535C342.796 132.535 340.973 137.316 331.194 140.447C332.772 141.187 334.054 142.439 334.832 143.998C334.832 143.998 346.262 141.092 345.393 133.859C344.591 133.303 343.717 132.858 342.796 132.535Z" fill="white"/>
<path d="M327.462 143.62C328.322 142.185 329.635 141.078 331.195 140.472C330.094 139.466 328.314 136.327 329.096 133.885C328.322 133.864 327.548 133.957 326.8 134.16C326.8 134.16 322.715 138.064 327.462 143.62Z" fill="white"/>
<path d="M330.919 146.011C330.842 146.699 330.489 147.215 330.119 147.172C329.75 147.129 329.517 146.553 329.586 145.865C329.655 145.177 330.025 144.669 330.386 144.704C330.747 144.738 330.997 145.34 330.919 146.011Z" fill="white"/>
<path d="M330.24 153.08C330.24 153.768 329.913 154.318 329.543 154.31C329.173 154.301 328.881 153.742 328.898 153.054C328.915 152.366 329.225 151.816 329.595 151.824C329.965 151.833 330.24 152.401 330.24 153.08Z" fill="white"/>
<path opacity="0.2" d="M338.462 120.099L332.717 124.915C332.952 125.831 333.104 126.767 333.173 127.71C335.331 127.418 338.333 125.078 338.556 122.825C338.69 121.918 338.658 120.995 338.462 120.099Z" fill="black"/>
<path d="M332.218 105.281C331.081 106.456 330.237 107.884 329.755 109.447C329.274 111.01 329.169 112.665 329.449 114.277C327.858 115.653 324.977 115.403 324.977 115.403L324.065 114.492C323.631 114.053 323.296 113.525 323.084 112.945C322.872 112.364 322.787 111.745 322.836 111.129C322.999 109.117 323.455 106.064 324.728 104.129C326.8 101.041 332.218 105.281 332.218 105.281Z" fill="#263238"/>
<path d="M343.088 109.22C342.607 116.1 342.675 120.082 339.192 123.556C333.946 128.794 325.535 125.586 323.962 118.74C322.551 112.583 323.575 102.4 330.291 99.8202C331.767 99.2266 333.369 99.0196 334.947 99.2186C336.524 99.4177 338.025 100.016 339.306 100.958C340.588 101.899 341.608 103.152 342.27 104.598C342.932 106.044 343.213 107.635 343.088 109.22Z" fill="#FFB573"/>
<path d="M337.378 105.04C338.52 107.597 338.634 110.495 337.696 113.133C337.595 113.4 337.549 113.684 337.56 113.969C337.572 114.254 337.642 114.534 337.765 114.791C337.888 115.048 338.062 115.278 338.276 115.466C338.49 115.654 338.741 115.797 339.012 115.885C339.606 116.062 340.224 116.146 340.844 116.134L344.138 115.507C344.138 115.507 345.522 110.605 344.619 107.018C343.716 103.432 337.378 105.04 337.378 105.04Z" fill="#263238"/>
<path d="M337.352 105.943C332.301 106.401 327.21 106.137 322.233 105.161C322.233 105.161 323.85 100.001 327.479 98.2808C331.109 96.5608 338.78 96.6726 341.145 97.6702C343.51 98.6678 346.597 101.712 345.445 109.143C342.994 111.8 337.352 105.943 337.352 105.943Z" fill="#263238"/>
<path d="M346.468 108.042C346.468 108.042 327.213 105.247 319.232 103.845C319.111 103.823 319.002 103.759 318.923 103.665C318.845 103.571 318.802 103.452 318.802 103.329C318.802 103.206 318.845 103.087 318.923 102.993C319.002 102.899 319.111 102.835 319.232 102.813C322.57 102.495 325.937 102.646 329.234 103.26L346.468 108.042Z" fill="#1565D8"/>
<path d="M322.371 102.822C322.715 101.102 325.691 92.2178 338.178 94.9182C349.745 97.4122 346.468 108.042 346.468 108.042L322.371 102.822Z" fill="#1565D8"/>
<path d="M330.196 95.1848L334.376 93.9464L339.415 94.3592V95.2278L336.216 95.9674L330.196 95.1848Z" fill="#1565D8"/>
<path opacity="0.2" d="M330.825 103.716C330.782 103.717 330.74 103.71 330.7 103.694C330.661 103.679 330.625 103.656 330.594 103.626C330.564 103.596 330.54 103.561 330.523 103.522C330.507 103.482 330.498 103.44 330.498 103.398C330.498 103.329 330.593 96.4146 338.78 94.5742C338.823 94.5608 338.869 94.5565 338.914 94.5617C338.959 94.5669 339.002 94.5813 339.041 94.6042C339.08 94.6271 339.114 94.6578 339.141 94.6945C339.168 94.7312 339.186 94.773 339.196 94.8173C339.205 94.8616 339.206 94.9074 339.197 94.9518C339.188 94.9962 339.169 95.0382 339.143 95.0752C339.117 95.1122 339.083 95.1434 339.045 95.1667C339.006 95.19 338.962 95.2049 338.917 95.2106C331.255 96.9306 331.177 103.131 331.177 103.398C331.178 103.443 331.168 103.487 331.15 103.528C331.132 103.569 331.106 103.606 331.072 103.636C331.039 103.666 331 103.689 330.957 103.702C330.915 103.716 330.869 103.721 330.825 103.716Z" fill="black"/>
<path d="M346.012 116.152C345.134 117.636 343.706 118.714 342.039 119.153C339.829 119.712 338.779 117.717 339.459 115.661C340.052 113.804 341.927 111.275 344.128 111.637C346.33 111.998 347.061 114.32 346.012 116.152Z" fill="#FFB573"/>
<path d="M318.2 341.42L329.888 341.601C329.888 341.601 333.052 295.358 332.7 273.85C332.597 267.305 333.31 258.095 334.42 248.205C335.787 235.743 336.51 230.764 338.307 215.009C339.588 203.777 340.887 196.089 340.887 196.089L316.618 195.874C316.618 195.874 313.513 252.204 314.149 273.274C314.76 295.092 318.2 341.42 318.2 341.42Z" fill="#263238"/>
<path opacity="0.2" d="M333.285 211.293C329.655 222.387 331.221 247.723 333.689 254.723C333.895 252.591 334.127 250.423 334.368 248.187C335.736 235.717 336.467 230.738 338.264 214.991C338.264 214.673 338.333 214.372 338.367 214.071C336.849 212.854 335.129 211.914 333.285 211.293Z" fill="black"/>
<path d="M329.646 195.925C329.646 195.925 337.885 253.898 340.826 273.91C344.043 295.823 351.146 341.575 351.146 341.575H363.78C363.78 341.575 361.406 298.454 358.68 277.032C355.584 252.625 353.443 196.14 353.443 196.14L329.646 195.925Z" fill="#263238"/>
<path d="M349.65 341.85H364.537V337.404L347.896 337.12L349.65 341.85Z" fill="#1565D8"/>
<path d="M316.419 341.644L330.317 341.859L330.953 337.361L315.447 336.879L316.419 341.644Z" fill="#1565D8"/>
<path d="M332.699 111C332.699 111.559 332.398 112.006 332.028 112.006C331.658 112.006 331.374 111.551 331.383 110.992C331.392 110.433 331.684 109.985 332.054 109.994C332.424 110.003 332.707 110.45 332.699 111Z" fill="#263238"/>
<path d="M326.405 110.94C326.405 111.499 326.104 111.946 325.742 111.938C325.381 111.929 325.089 111.482 325.089 110.931C325.089 110.381 325.39 109.925 325.76 109.925C326.13 109.925 326.413 110.39 326.405 110.94Z" fill="#263238"/>
<path d="M328.219 111.533C327.538 113.228 326.627 114.819 325.51 116.263C325.888 116.539 326.322 116.728 326.781 116.819C327.24 116.91 327.713 116.899 328.167 116.788L328.219 111.533Z" fill="#ED893E"/>
<path d="M330.695 118.448C331.316 118.38 331.917 118.185 332.459 117.876C333.002 117.567 333.476 117.15 333.852 116.65C333.867 116.615 333.87 116.576 333.86 116.539C333.849 116.502 333.826 116.469 333.794 116.448C333.762 116.426 333.724 116.417 333.686 116.421C333.647 116.425 333.612 116.442 333.585 116.47C333.159 117.018 332.61 117.459 331.983 117.758C331.356 118.057 330.667 118.205 329.973 118.19C329.93 118.19 329.888 118.207 329.857 118.238C329.827 118.268 329.81 118.31 329.81 118.353C329.81 118.397 329.827 118.438 329.857 118.469C329.888 118.499 329.93 118.517 329.973 118.517C330.215 118.507 330.456 118.484 330.695 118.448Z" fill="#263238"/>
<path d="M334.66 108.988C334.715 108.979 334.768 108.959 334.815 108.928C334.884 108.876 334.93 108.799 334.943 108.714C334.956 108.629 334.934 108.541 334.883 108.472C334.582 108.047 334.184 107.701 333.721 107.462C333.259 107.222 332.746 107.097 332.226 107.096C332.183 107.098 332.142 107.109 332.103 107.127C332.065 107.146 332.031 107.172 332.003 107.204C331.974 107.236 331.953 107.274 331.94 107.314C331.926 107.355 331.921 107.397 331.925 107.44C331.927 107.483 331.938 107.525 331.956 107.564C331.975 107.602 332.001 107.637 332.033 107.666C332.065 107.695 332.102 107.717 332.142 107.731C332.183 107.746 332.226 107.752 332.269 107.749C332.68 107.754 333.085 107.857 333.449 108.05C333.812 108.243 334.124 108.521 334.359 108.859C334.391 108.907 334.437 108.945 334.49 108.968C334.544 108.991 334.603 108.998 334.66 108.988Z" fill="#263238"/>
<path d="M323.712 108.756C323.766 108.75 323.817 108.731 323.862 108.701C323.907 108.671 323.944 108.631 323.97 108.584C324.141 108.21 324.398 107.882 324.722 107.627C325.045 107.373 325.424 107.2 325.828 107.122C325.914 107.111 325.993 107.067 326.047 106.999C326.101 106.93 326.126 106.843 326.116 106.756C326.105 106.669 326.061 106.59 325.993 106.536C325.924 106.482 325.837 106.458 325.75 106.468C325.238 106.559 324.756 106.772 324.344 107.089C323.932 107.407 323.603 107.819 323.385 108.291C323.365 108.329 323.352 108.371 323.349 108.414C323.345 108.458 323.35 108.501 323.364 108.542C323.378 108.583 323.4 108.621 323.428 108.653C323.457 108.685 323.492 108.712 323.532 108.73C323.588 108.755 323.651 108.764 323.712 108.756Z" fill="#263238"/>
<path d="M352.29 351.327C352.902 351.31 353.51 351.226 354.105 351.078C354.136 351.068 354.165 351.05 354.187 351.026C354.21 351.002 354.226 350.972 354.234 350.94C354.238 350.909 354.234 350.878 354.222 350.849C354.21 350.82 354.19 350.795 354.165 350.777C353.924 350.622 351.748 349.255 350.974 349.642C350.888 349.686 350.815 349.753 350.762 349.834C350.709 349.915 350.679 350.009 350.673 350.106C350.647 350.263 350.661 350.424 350.713 350.575C350.766 350.725 350.856 350.86 350.974 350.966C351.359 351.233 351.823 351.36 352.29 351.327ZM353.64 350.846C352.453 351.078 351.559 351.035 351.189 350.717C351.109 350.644 351.05 350.552 351.017 350.449C350.984 350.347 350.978 350.237 351 350.132C350.997 350.092 351.006 350.051 351.026 350.016C351.046 349.981 351.076 349.952 351.112 349.934C351.516 349.728 352.754 350.321 353.64 350.88V350.846Z" fill="#1565D8"/>
<path d="M354.062 351.078C354.093 351.087 354.125 351.087 354.156 351.078C354.18 351.062 354.2 351.04 354.214 351.015C354.227 350.989 354.234 350.961 354.234 350.932C354.234 350.846 354.148 348.85 353.374 348.197C353.281 348.115 353.171 348.054 353.052 348.018C352.934 347.983 352.809 347.973 352.686 347.99C352.563 347.992 352.444 348.035 352.348 348.111C352.251 348.187 352.183 348.293 352.153 348.412C351.972 349.186 353.288 350.699 353.984 351.086L354.062 351.078ZM352.789 348.3C352.857 348.299 352.925 348.311 352.989 348.336C353.052 348.361 353.11 348.399 353.159 348.446C353.621 349.072 353.873 349.827 353.881 350.605C353.193 350.063 352.368 348.885 352.471 348.472C352.471 348.429 352.471 348.326 352.72 348.3H352.789Z" fill="#1565D8"/>
<path d="M319.258 350.932C319.286 350.92 319.312 350.902 319.332 350.877C319.351 350.853 319.364 350.825 319.369 350.794C319.377 350.762 319.373 350.729 319.359 350.699C319.345 350.669 319.321 350.645 319.292 350.631C318.991 350.459 316.316 349.014 315.448 349.461C315.366 349.505 315.297 349.568 315.245 349.644C315.192 349.72 315.159 349.808 315.147 349.9C315.121 350.043 315.131 350.191 315.174 350.33C315.218 350.469 315.294 350.596 315.396 350.699C316.11 351.379 318.105 351.138 319.232 350.932H319.258ZM315.646 349.728C316.179 349.556 317.641 350.149 318.707 350.691C317.159 350.923 316.033 350.837 315.637 350.459C315.565 350.392 315.513 350.307 315.484 350.214C315.455 350.12 315.452 350.021 315.474 349.925C315.474 349.889 315.484 349.853 315.504 349.823C315.524 349.792 315.552 349.768 315.585 349.753L315.646 349.728Z" fill="#1565D8"/>
<path d="M319.257 350.932C319.28 350.915 319.299 350.893 319.313 350.867C319.326 350.842 319.334 350.814 319.335 350.785C319.335 350.708 319.275 348.842 318.475 348.111C318.36 348.005 318.224 347.924 318.076 347.873C317.928 347.823 317.771 347.804 317.615 347.818C317.168 347.818 317.021 348.076 316.978 348.266C316.798 349.04 318.346 350.562 319.154 350.949C319.189 350.953 319.225 350.947 319.257 350.932ZM317.443 348.145H317.606C317.725 348.135 317.844 348.15 317.956 348.188C318.069 348.227 318.172 348.288 318.26 348.369C318.736 348.983 319.004 349.733 319.025 350.51C318.208 349.986 317.168 348.79 317.305 348.326C317.288 348.3 317.34 348.188 317.443 348.145Z" fill="#1565D8"/>
<path d="M346.4 132.689C345.965 132.633 345.524 132.682 345.112 132.831C344.701 132.981 344.331 133.227 344.035 133.549C341.661 136.129 336.002 144.016 334.833 162.42C333.899 176.319 335.18 190.279 338.625 203.777L353.331 199.597C353.803 199.466 354.212 199.17 354.485 198.763C354.758 198.356 354.876 197.865 354.819 197.379C354.423 193.939 353.572 185.657 353.331 176.395C353.168 169.876 353.658 164.002 353.632 161.336C352.015 158.171 349.109 153.003 350.192 147.37C351.362 141.083 354.819 140.223 357.175 139.071C357.481 138.911 357.736 138.67 357.912 138.374C358.088 138.078 358.179 137.739 358.173 137.395C358.168 137.051 358.067 136.714 357.882 136.424C357.696 136.134 357.434 135.901 357.124 135.751C353.719 134.209 350.105 133.177 346.4 132.689Z" fill="#1565D8"/>
<path d="M325.699 203.751L315.62 200.586C315.242 200.467 314.906 200.241 314.653 199.936C314.4 199.631 314.24 199.26 314.192 198.866C313.332 192.21 309.737 161.654 314.381 138.967C314.535 138.202 314.886 137.489 315.398 136.899C315.911 136.31 316.568 135.864 317.305 135.605C320.207 134.62 323.21 133.965 326.258 133.653C326.347 133.643 326.437 133.656 326.52 133.689C326.603 133.723 326.676 133.777 326.733 133.846C326.79 133.915 326.829 133.997 326.847 134.085C326.864 134.173 326.86 134.264 326.834 134.349C324.925 141.358 321.743 179.74 325.699 203.751Z" fill="#1565D8"/>
<path d="M312.48 180.359C312.661 183.576 312.893 186.543 313.125 189.148C316.78 189.561 320.521 189.845 324.237 190.008C324.065 187.162 323.944 184.246 323.884 181.314C320.031 181.125 316.196 180.815 312.48 180.359Z" fill="white"/>
<path d="M323.979 165.189C319.894 165.017 315.878 164.699 312.06 164.208C312.06 167.184 312.06 170.108 312.154 172.92C315.947 173.385 319.894 173.686 323.824 173.849C323.833 170.916 323.893 168.01 323.979 165.189Z" fill="white"/>
<path d="M353.46 180.755C348.085 181.279 341.695 181.615 334.97 181.615C335.211 184.771 335.537 187.678 335.907 190.266C342.486 190.266 348.704 189.879 354.036 189.355C353.838 186.732 353.632 183.808 353.46 180.755Z" fill="white"/>
<path d="M353.554 164.26C347.835 164.853 341.334 165.258 334.678 165.344C334.557 168.345 334.54 171.243 334.6 174.004C341.179 173.918 347.577 173.531 353.305 172.955C353.314 169.601 353.46 166.565 353.554 164.26Z" fill="white"/>
<path d="M380.55 208.98L341.48 215.499C341.229 215.546 340.971 215.539 340.723 215.478C340.475 215.418 340.242 215.305 340.041 215.149C339.839 214.992 339.673 214.794 339.554 214.568C339.434 214.342 339.364 214.094 339.348 213.839L337.481 189.621C337.449 189.079 337.617 188.543 337.953 188.115C338.289 187.687 338.77 187.397 339.305 187.299L378.4 180.781C378.651 180.732 378.91 180.738 379.159 180.798C379.408 180.858 379.641 180.97 379.843 181.127C380.044 181.284 380.21 181.483 380.33 181.709C380.449 181.936 380.518 182.185 380.533 182.44L382.399 206.658C382.43 207.205 382.259 207.744 381.918 208.172C381.577 208.6 381.09 208.888 380.55 208.98Z" fill="#1565D8"/>
<path opacity="0.4" d="M380.549 208.98L342.383 215.344C342.131 215.392 341.873 215.386 341.624 215.326C341.375 215.267 341.142 215.154 340.94 214.997C340.738 214.84 340.572 214.642 340.453 214.415C340.334 214.189 340.265 213.94 340.25 213.684L338.384 189.467C338.352 188.924 338.52 188.388 338.855 187.96C339.191 187.532 339.672 187.242 340.207 187.145L378.374 180.781C378.625 180.732 378.884 180.738 379.132 180.798C379.381 180.858 379.614 180.97 379.816 181.127C380.018 181.284 380.184 181.483 380.303 181.709C380.422 181.936 380.491 182.185 380.506 182.44L382.373 206.658C382.405 207.201 382.237 207.737 381.901 208.164C381.565 208.592 381.084 208.882 380.549 208.98Z" fill="black"/>
<path d="M357.76 140.524C359.936 145.478 361.862 150.405 363.608 155.497C364.468 158.025 365.328 160.588 366.093 163.168C366.48 164.466 366.85 165.748 367.203 167.089L367.469 168.07L367.744 169.205C367.942 169.979 368.054 170.753 368.192 171.518C368.859 177.338 368.341 183.233 366.669 188.847C365.926 191.521 365.019 194.146 363.952 196.708C363.41 197.981 362.842 199.228 362.232 200.466C361.621 201.704 361.019 202.891 360.28 204.155L355.593 201.928C356.341 199.597 357.098 197.086 357.657 194.635C358.216 192.184 358.757 189.69 359.127 187.239C359.49 184.828 359.685 182.394 359.712 179.955C359.761 177.667 359.544 175.382 359.067 173.144C358.921 172.628 358.826 172.086 358.646 171.596L358.396 170.822L358.078 169.962C357.657 168.758 357.218 167.562 356.745 166.358C355.885 163.942 354.879 161.534 353.933 159.117L348.119 144.669L357.76 140.524Z" fill="#FFB573"/>
<path d="M356.16 136.138C362.361 138.46 366.36 156.253 366.36 156.253L352.643 165.713C352.643 165.713 348.429 155.178 346.107 146.965C343.604 138.03 348.661 133.386 356.16 136.138Z" fill="#1565D8"/>
<path opacity="0.5" d="M356.16 136.138C362.361 138.46 366.36 156.253 366.36 156.253L352.643 165.713C352.643 165.713 348.429 155.178 346.107 146.965C343.604 138.03 348.661 133.386 356.16 136.138Z" fill="white"/>
<path d="M355.033 203.012L353.838 208.301L362.102 208.06C362.102 208.06 362.765 201.67 359.522 200.664L356.942 201.154C356.479 201.246 356.051 201.47 355.712 201.8C355.373 202.129 355.138 202.55 355.033 203.012Z" fill="#FFB573"/>
<path d="M356.426 214.905L361.397 213.891C361.689 213.831 361.95 213.667 362.13 213.43C362.31 213.193 362.398 212.898 362.378 212.601L362.102 208.06L353.838 208.301L354.973 213.934C355.037 214.255 355.227 214.538 355.499 214.72C355.771 214.902 356.105 214.969 356.426 214.905Z" fill="#FFB573"/>
<path d="M108.145 195.418C108.145 195.418 105.703 248.936 105.238 270.608C104.748 293.157 104.533 345.806 104.533 345.806H98.8485C98.8485 345.806 89.7669 302.049 92.4587 270.608C88.3909 246.467 85.6475 195.418 85.6475 195.418H108.145Z" fill="#FF8B7B"/>
<path d="M100.62 195.418C100.62 195.418 87.0664 251.464 81.528 272.422C75.68 294.43 67.8196 344.172 67.768 345.806H62.8488C62.8488 345.806 61.3008 288.341 69.0924 268.802C69.0924 244.317 79.2748 195.418 79.2748 195.418H100.62Z" fill="#FF8B7B"/>
<path d="M62.7287 342.822C61.7913 343.888 61.0087 349.409 62.4535 351.869C63.8983 354.329 62.4535 357.966 67.1835 357.966C71.9135 357.966 72.3435 356.934 71.1825 354.733C70.0215 352.531 68.6025 348.395 68.6541 345.806C68.7057 342.469 69.9871 340.749 62.7287 342.822Z" fill="#263238"/>
<path d="M62.1435 348.575C62.0403 351.413 62.1005 356.049 62.1005 356.049H62.8487C62.8487 356.049 63.4077 350.975 63.8807 349.091L62.1435 348.575Z" fill="#263238"/>
<path d="M112.987 161.181C113.597 165.55 114.139 169.919 114.638 174.296C115.137 178.674 115.627 183.06 116.1 187.48C116.212 188.572 116.298 189.725 116.487 190.636C116.564 191.109 116.659 191.599 116.771 192.124C116.882 192.649 116.968 193.147 117.097 193.655C117.562 195.702 118.155 197.757 118.817 199.812C119.48 201.868 120.116 203.923 120.873 205.961C121.63 208 122.386 210.064 123.178 212.05L120.004 213.77C117.524 209.937 115.356 205.91 113.52 201.73C112.595 199.624 111.779 197.471 111.077 195.28C110.888 194.738 110.733 194.162 110.57 193.603C110.407 193.044 110.243 192.477 110.106 191.883C109.836 190.762 109.624 189.629 109.469 188.486C108.781 184.1 108.133 179.708 107.526 175.311C106.889 170.916 106.304 166.522 105.806 162.11L112.987 161.181Z" fill="#FF8B7B"/>
<path d="M111.74 154.8C113.546 158.18 114.484 171.518 115.997 180.677C116.046 181.001 115.981 181.331 115.813 181.612C115.645 181.893 115.385 182.107 115.077 182.217C113.059 183.02 111.192 184.16 109.556 185.588C109.371 185.746 109.149 185.852 108.911 185.897C108.672 185.943 108.426 185.925 108.197 185.846C107.967 185.767 107.763 185.629 107.603 185.447C107.443 185.264 107.334 185.043 107.285 184.805L102.985 164.931L104.852 161.164C105.312 159.578 106.196 158.148 107.408 157.027C108.62 155.906 110.115 155.136 111.732 154.8H111.74Z" fill="#263238"/>
<path d="M123.04 211.328L129.301 214.845L122.533 217.425C122.533 217.425 119.093 214.458 119.703 211.569L123.04 211.328Z" fill="#FF8B7B"/>
<path d="M131.598 220.366L125.818 222.181L122.533 217.382L129.301 214.845L131.598 220.366Z" fill="#FF8B7B"/>
<path d="M120.279 218.836L186.551 211.018L186.628 211.646L120.468 220.341L120.279 218.836Z" fill="#263238"/>
<path d="M112.376 157.277C112.488 162.437 112.17 176.988 108.549 199.262H78.3718C78.862 187.48 80.3326 176.3 74.7168 152.22C78.5734 151.435 82.4827 150.934 86.4128 150.724C90.779 150.414 95.1616 150.414 99.5278 150.724C102.349 150.982 105.359 151.437 107.663 151.833C108.957 152.055 110.134 152.719 110.993 153.712C111.853 154.705 112.341 155.964 112.376 157.277Z" fill="#263238"/>
<path opacity="0.2" d="M96.8964 199.365C96.8691 199.359 96.8447 199.344 96.8275 199.322C96.8102 199.3 96.8011 199.273 96.8018 199.245C99.5538 173.643 97.1372 163.434 97.1114 163.331C97.1059 163.304 97.1108 163.276 97.1252 163.252C97.1395 163.228 97.1622 163.21 97.1888 163.202C97.2023 163.197 97.2169 163.195 97.2314 163.196C97.2459 163.197 97.26 163.201 97.2725 163.209C97.2849 163.216 97.2955 163.227 97.3034 163.239C97.3112 163.251 97.3162 163.265 97.3178 163.28C97.3178 163.383 99.7688 173.6 97.0168 199.271C97.0158 199.285 97.0118 199.299 97.005 199.312C96.9983 199.325 96.9889 199.336 96.9776 199.345C96.9663 199.354 96.9532 199.36 96.9392 199.364C96.9252 199.367 96.9106 199.368 96.8964 199.365Z" fill="white"/>
<path d="M99.5281 150.698H86.4131C86.4131 150.698 90.9195 158.266 96.8965 162.256C99.1219 158.84 100.055 154.741 99.5281 150.698Z" fill="#E0E0E0"/>
<path d="M92.0893 132.062C95.0391 137.041 93.8609 143.19 89.4577 145.822C85.0545 148.453 79.1377 146.492 76.1535 141.522C73.1693 136.551 74.3819 130.342 78.7851 127.762C83.1883 125.182 89.1395 127.074 92.0893 132.062Z" fill="#263238"/>
<path d="M73.5652 137.505C73.4042 134.751 74.2544 132.032 75.956 129.86C76.7263 128.838 77.712 127.997 78.8433 127.398C79.9746 126.799 81.2237 126.457 82.5023 126.394C83.7808 126.332 85.0574 126.551 86.2416 127.037C87.4258 127.523 88.4887 128.264 89.3548 129.206C91.2659 131.211 92.3791 133.844 92.4852 136.611H92.0552C91.9541 133.947 90.8837 131.412 89.0452 129.482C88.2221 128.582 87.2105 127.875 86.0828 127.411C84.955 126.947 83.7387 126.737 82.5207 126.797C81.3027 126.857 80.1129 127.185 79.0361 127.758C77.9594 128.33 77.0222 129.133 76.2914 130.109C74.6406 132.199 73.8117 134.821 73.9608 137.48L73.5652 137.505Z" fill="#263238"/>
<path d="M107.378 139.969C109.717 135.139 107.892 129.42 103.301 127.197C98.7098 124.974 93.0916 127.087 90.7523 131.918C88.413 136.748 90.2384 142.466 94.8295 144.69C99.4206 146.913 105.039 144.8 107.378 139.969Z" fill="#263238"/>
<path d="M87.7205 135.94C88.5805 140.154 89.3717 147.886 86.4219 150.698C86.4219 150.698 88.7009 155.161 95.4433 156.718C99.6315 154.138 99.5369 150.698 99.5369 150.698C94.8327 149.571 94.9531 146.088 95.7701 142.812L87.7205 135.94Z" fill="#FF8B7B"/>
<path d="M92.6822 155.849L86.8084 148.926L84.7788 150.001L84.4434 160.012L88.795 154.301L92.6822 155.849Z" fill="white"/>
<path d="M96.6641 155.849L98.5733 149.623L100.973 150.698L103.604 159.126L99.6827 154.301L96.6641 155.849Z" fill="white"/>
<path opacity="0.2" d="M90.9966 138.744L95.761 142.803C95.5563 143.566 95.421 144.346 95.3568 145.134C93.5594 144.876 91.0568 142.898 90.902 141.014C90.7891 140.258 90.8212 139.488 90.9966 138.744Z" fill="black"/>
<path d="M83.2656 128.2C84.9168 135.08 85.4758 137.996 89.6038 140.937C95.8216 145.357 103.88 141.797 104.31 134.607C104.697 128.114 101.928 117.992 94.652 116.435C93.0495 116.085 91.384 116.149 89.8135 116.623C88.2431 117.097 86.8199 117.965 85.679 119.144C84.5382 120.322 83.7176 121.773 83.2952 123.358C82.8728 124.943 82.8626 126.61 83.2656 128.2Z" fill="#FF8B7B"/>
<path d="M84.8306 131.365C89.1306 128.785 88.563 121.045 88.563 121.045C96.002 120.95 98.883 121.045 101.145 121.363C103.407 121.681 102.005 118.654 98.6938 116.203C95.3828 113.752 86.4044 114.483 83.6094 119.17C80.1694 120.546 76.8842 128.355 84.8306 131.365Z" fill="#263238"/>
<path d="M78.9912 124.7C78.9912 124.7 103.2 119.54 108.291 118.069C108.291 115.034 95.8386 118.792 95.8386 118.792L78.9912 124.7Z" fill="#1565D8"/>
<path d="M102.685 117.889C102.22 116.169 98.6511 107.526 86.3445 111.069C75.0097 114.38 78.9915 124.7 78.9915 124.7L102.685 117.889Z" fill="#1565D8"/>
<path d="M94.3601 110.794L90.0514 109.719L85.1064 110.596L85.1666 111.465L88.4089 111.989L94.3601 110.794Z" fill="#1565D8"/>
<path opacity="0.4" d="M94.291 119.463C94.1827 119.463 94.0782 119.422 93.9985 119.349C93.9188 119.276 93.8697 119.175 93.861 119.067C93.861 118.8 93.3192 112.694 85.6394 111.516C85.5275 111.497 85.4273 111.435 85.3599 111.344C85.2926 111.253 85.2633 111.139 85.2782 111.026C85.2992 110.915 85.3614 110.816 85.4524 110.749C85.5433 110.682 85.6562 110.652 85.7684 110.665C94.1448 111.955 94.7124 118.938 94.721 119.007C94.7245 119.063 94.7168 119.12 94.6984 119.173C94.68 119.227 94.6511 119.276 94.6136 119.319C94.576 119.361 94.5305 119.395 94.4796 119.42C94.4286 119.445 94.3733 119.459 94.3168 119.463H94.291Z" fill="black"/>
<path opacity="0.2" d="M105.402 264.14L91.0225 260.632C90.6269 257.579 90.2657 254.328 89.9131 250.982L105.737 253.752C105.608 257.467 105.496 260.984 105.402 264.14Z" fill="black"/>
<path opacity="0.2" d="M70.6235 247.62L87.0838 250.492C86.3356 253.494 85.6046 256.392 84.9166 259.144L69.7979 255.42C70.0301 252.917 70.3053 250.26 70.6235 247.62Z" fill="black"/>
<path d="M95.3998 128.278C95.4944 128.845 95.8814 129.249 96.2598 129.181C96.6382 129.112 96.8532 128.604 96.75 128.037C96.6468 127.469 96.2684 127.074 95.89 127.177C95.5116 127.28 95.2966 127.71 95.3998 128.278Z" fill="#263238"/>
<path d="M101.782 127.151C101.876 127.71 102.263 128.114 102.642 128.054C103.02 127.994 103.235 127.478 103.132 126.91C103.029 126.343 102.65 125.938 102.272 126.05C101.893 126.162 101.678 126.583 101.782 127.151Z" fill="#263238"/>
<path d="M102.108 126.067L103.398 125.44C103.398 125.44 102.891 126.618 102.108 126.067Z" fill="#263238"/>
<path d="M100.268 128.415C100.997 129.615 101.888 130.709 102.916 131.666C102.665 131.922 102.361 132.12 102.025 132.246C101.69 132.372 101.33 132.424 100.973 132.397L100.268 128.415Z" fill="#FF5652"/>
<path d="M97.5936 135.02C97.9166 135.02 98.2389 134.991 98.5568 134.934C98.5783 134.931 98.5991 134.923 98.6177 134.912C98.6364 134.901 98.6526 134.886 98.6654 134.868C98.6783 134.851 98.6874 134.831 98.6924 134.81C98.6974 134.788 98.698 134.766 98.6944 134.745C98.686 134.701 98.6606 134.661 98.6236 134.636C98.5866 134.61 98.541 134.6 98.4966 134.607C97.797 134.745 97.0748 134.718 96.3879 134.527C95.7009 134.335 95.0682 133.986 94.5406 133.506C94.5109 133.474 94.4698 133.456 94.4262 133.454C94.3827 133.452 94.3403 133.468 94.3084 133.498C94.2764 133.527 94.2576 133.569 94.256 133.612C94.2544 133.656 94.2701 133.698 94.2998 133.73C95.186 134.575 96.3689 135.039 97.5936 135.02Z" fill="#263238"/>
<path d="M82.3107 132.113C82.5758 132.74 82.9623 133.308 83.4479 133.785C83.9335 134.261 84.5086 134.637 85.1401 134.891C86.8601 135.562 87.8577 134.108 87.5567 132.423C87.2815 130.909 86.0861 128.725 84.3231 128.768C83.9339 128.778 83.5535 128.885 83.2171 129.081C82.8807 129.277 82.5991 129.554 82.3984 129.888C82.1978 130.222 82.0845 130.6 82.0692 130.989C82.0538 131.378 82.1369 131.765 82.3107 132.113Z" fill="#FF8B7B"/>
<path d="M92.5882 125.706C92.6337 125.702 92.6777 125.688 92.7176 125.666C92.7575 125.643 92.7925 125.613 92.8204 125.577C93.0758 125.241 93.4063 124.968 93.7855 124.781C94.1647 124.595 94.5822 124.499 95.0048 124.502C95.0489 124.507 95.0935 124.503 95.136 124.49C95.1785 124.478 95.2181 124.457 95.2525 124.429C95.2869 124.401 95.3154 124.366 95.3364 124.327C95.3573 124.288 95.3703 124.245 95.3746 124.201C95.3818 124.111 95.3534 124.022 95.2955 123.953C95.2376 123.884 95.1548 123.84 95.065 123.831C94.5308 123.818 94.0011 123.932 93.5197 124.164C93.0382 124.396 92.6187 124.739 92.2958 125.164C92.2418 125.235 92.217 125.323 92.2266 125.411C92.2363 125.499 92.2795 125.58 92.3474 125.637C92.4169 125.688 92.5023 125.713 92.5882 125.706Z" fill="#263238"/>
<path d="M102.968 123.616C103.05 123.589 103.118 123.53 103.157 123.453C103.178 123.413 103.19 123.369 103.193 123.325C103.196 123.28 103.191 123.235 103.176 123.192C103.162 123.15 103.139 123.111 103.109 123.077C103.079 123.044 103.043 123.016 103.002 122.997C102.528 122.752 102.001 122.624 101.467 122.624C100.933 122.624 100.407 122.752 99.9321 122.997C99.8555 123.044 99.8001 123.118 99.7776 123.205C99.7551 123.292 99.7674 123.384 99.8117 123.462C99.8339 123.5 99.8637 123.534 99.8992 123.561C99.9347 123.589 99.9753 123.608 100.019 123.62C100.062 123.631 100.107 123.633 100.151 123.627C100.195 123.62 100.238 123.605 100.276 123.582C100.652 123.387 101.07 123.286 101.493 123.286C101.916 123.286 102.334 123.387 102.71 123.582C102.748 123.607 102.79 123.623 102.835 123.629C102.88 123.634 102.925 123.63 102.968 123.616Z" fill="#263238"/>
<path d="M95.7266 127.194L97.0165 126.566C97.0165 126.566 96.5091 127.744 95.7266 127.194Z" fill="#263238"/>
<path d="M108.549 199.262L107.311 259.144L68.7053 253.64C67.1573 222.327 72.5753 205.893 78.3717 199.262H108.549Z" fill="#263238"/>
<path opacity="0.2" d="M98.419 234.298L89.2256 223.239V214.51L98.419 234.298Z" fill="black"/>
<path d="M78.501 159.96C77.3486 163.4 76.2392 166.995 75.19 170.512C74.1408 174.03 73.212 177.616 72.4638 181.15C72.1112 182.87 71.7672 184.676 71.6038 186.388V186.715V186.869C71.6038 186.921 71.6038 186.869 71.6038 186.869C71.5847 186.99 71.6059 187.114 71.664 187.222C71.9165 187.758 72.2664 188.242 72.696 188.65C73.8593 189.808 75.1488 190.832 76.5402 191.703C78.0194 192.649 79.6448 193.56 81.21 194.377L80.1092 197.817C78.1428 197.441 76.2122 196.897 74.3386 196.192C72.3365 195.464 70.4462 194.46 68.7228 193.208C67.682 192.432 66.7879 191.477 66.0826 190.387C65.6416 189.683 65.3246 188.91 65.1452 188.099C65.0485 187.65 64.9995 187.191 64.999 186.732V186.216V185.829C65.0592 184.814 65.1452 183.799 65.2656 182.819C65.386 181.838 65.5322 180.858 65.6784 179.886C66.328 176.07 67.1719 172.29 68.2068 168.56C68.6942 166.702 69.2302 164.859 69.815 163.03C70.3912 161.198 70.9674 159.401 71.6468 157.543L78.501 159.96Z" fill="#FF8B7B"/>
<path d="M100.844 183.756L96.1999 180.325L85.5617 196.243L73.4443 211.07L78.0969 214.51L88.7265 198.583L100.844 183.756Z" fill="#FAFAFA"/>
<path d="M96.1914 180.325C97.2392 182.03 98.9067 183.263 100.844 183.765C99.7962 182.06 98.1287 180.827 96.1914 180.325Z" fill="#E6E6E6"/>
<path d="M73.4443 211.07C74.4922 212.775 76.1597 214.008 78.0969 214.51C77.0491 212.805 75.3816 211.572 73.4443 211.07Z" fill="#E6E6E6"/>
<path d="M80.4193 194.119L88.0819 194.627L83.0681 199.83C83.0681 199.83 78.6649 198.643 77.9941 195.77L80.4193 194.119Z" fill="#FF8B7B"/>
<path d="M90.5664 198.66L88.4078 201.704C88.2186 201.969 87.9387 202.154 87.6215 202.226C87.3044 202.297 86.972 202.249 86.6878 202.091L81.9922 199.46L88.0982 194.635L90.4288 196.94C90.6519 197.164 90.7882 197.46 90.8134 197.775C90.8386 198.09 90.7511 198.404 90.5664 198.66Z" fill="#FF8B7B"/>
<path d="M80.935 158.567C80.3932 155.239 77.9078 153.278 74.7172 152.194C70.0216 155.591 67.7254 166.814 65.1282 179.903C65.0607 180.282 65.1223 180.673 65.3031 181.013C65.484 181.353 65.7737 181.622 66.1258 181.778C68.1812 182.638 69.9356 183.498 71.1138 184.049C71.3189 184.152 71.5432 184.212 71.7726 184.225C72.0019 184.237 72.2314 184.202 72.4464 184.121C72.6615 184.04 72.8574 183.915 73.0218 183.755C73.1861 183.594 73.3154 183.402 73.4014 183.189L81.795 162.359L80.935 158.567Z" fill="#263238"/>
<path d="M115.343 356.565C114.471 355.93 113.501 355.442 112.471 355.12C112.471 355.12 107.38 352.239 104.731 343.596L98.8485 342.125C98.7021 342.089 98.5497 342.084 98.4013 342.111C98.2529 342.137 98.1118 342.195 97.9875 342.281C97.8631 342.366 97.7583 342.477 97.6799 342.606C97.6015 342.735 97.5513 342.879 97.5327 343.028C97.4725 343.493 97.4381 344.026 97.3779 344.456C97.322 345.392 97.322 346.331 97.3779 347.268C97.4295 350.183 97.7563 356.728 97.7563 356.728H98.4443C98.4442 354.736 98.5648 352.746 98.8055 350.768C99.1409 348.842 100.525 351.121 101.265 353.297C102.005 355.472 105.092 357.803 109.538 357.906C114.741 358.061 116.857 357.829 115.343 356.565Z" fill="#263238"/>
<path d="M284.213 98.9H135.751C135.332 98.901 134.917 98.9858 134.532 99.1494C134.146 99.313 133.797 99.5521 133.506 99.8527C133.214 100.153 132.985 100.509 132.833 100.899C132.681 101.29 132.609 101.706 132.62 102.125L138.64 306.59C138.665 307.406 139.006 308.18 139.592 308.749C140.179 309.317 140.963 309.635 141.779 309.634H290.198C290.618 309.635 291.035 309.55 291.422 309.387C291.809 309.223 292.159 308.983 292.452 308.682C292.745 308.38 292.974 308.023 293.126 307.631C293.278 307.239 293.35 306.821 293.337 306.401L287.317 101.944C287.295 101.134 286.959 100.363 286.38 99.7952C285.801 99.2273 285.024 98.9064 284.213 98.9Z" fill="#1565D8"/>
<path opacity="0.2" d="M284.213 98.9H135.751C135.332 98.901 134.917 98.9858 134.532 99.1494C134.146 99.313 133.797 99.5521 133.506 99.8527C133.214 100.153 132.985 100.509 132.833 100.899C132.681 101.29 132.609 101.706 132.62 102.125L138.64 306.59C138.665 307.406 139.006 308.18 139.592 308.749C140.179 309.317 140.963 309.635 141.779 309.634H290.198C290.618 309.635 291.035 309.55 291.422 309.387C291.809 309.223 292.159 308.983 292.452 308.682C292.745 308.38 292.974 308.023 293.126 307.631C293.278 307.239 293.35 306.821 293.337 306.401L287.317 101.944C287.295 101.134 286.959 100.363 286.38 99.7952C285.801 99.2273 285.024 98.9064 284.213 98.9Z" fill="black"/>
<path d="M168.353 95.9158H154.421V96.7758H168.353V95.9158Z" fill="#1565D8"/>
<path d="M149.451 95.9158H145.916V96.7758H149.451V95.9158Z" fill="#1565D8"/>
<path d="M285.64 98.9H137.187C136.768 98.8998 136.352 98.9838 135.966 99.1469C135.579 99.31 135.229 99.5489 134.936 99.8496C134.644 100.15 134.414 100.507 134.262 100.897C134.109 101.288 134.037 101.706 134.048 102.125L140.068 306.59C140.095 307.405 140.437 308.178 141.023 308.746C141.608 309.314 142.391 309.633 143.207 309.634H291.634C292.054 309.633 292.469 309.548 292.855 309.384C293.241 309.22 293.591 308.98 293.883 308.679C294.174 308.377 294.403 308.02 294.554 307.629C294.706 307.238 294.778 306.82 294.765 306.401L288.745 101.944C288.72 101.134 288.384 100.365 287.805 99.7976C287.226 99.2301 286.451 98.9085 285.64 98.9Z" fill="#1565D8"/>
<path opacity="0.2" d="M140.412 110.003L145.985 300.432C146.014 301.252 146.358 302.029 146.946 302.602C147.534 303.174 148.321 303.496 149.141 303.503H283.576C283.975 303.504 284.37 303.425 284.738 303.27C285.105 303.115 285.437 302.887 285.715 302.6C285.992 302.313 286.208 301.973 286.35 301.601C286.493 301.228 286.559 300.831 286.543 300.432L280.971 110.003C280.942 109.183 280.597 108.407 280.009 107.837C279.42 107.266 278.634 106.945 277.814 106.941H143.379C142.981 106.938 142.586 107.017 142.219 107.171C141.851 107.325 141.519 107.552 141.242 107.838C140.964 108.124 140.748 108.463 140.605 108.835C140.463 109.207 140.397 109.604 140.412 110.003Z" fill="black"/>
<path d="M141.341 109.074L146.914 299.504C146.943 300.323 147.287 301.099 147.876 301.67C148.464 302.24 149.25 302.561 150.07 302.565H284.505C284.904 302.568 285.298 302.49 285.666 302.336C286.033 302.181 286.366 301.954 286.643 301.668C286.92 301.382 287.136 301.043 287.279 300.671C287.422 300.299 287.487 299.902 287.472 299.504L281.899 109.074C281.87 108.255 281.526 107.478 280.937 106.908C280.349 106.337 279.563 106.016 278.743 106.012H144.308C143.91 106.01 143.515 106.088 143.147 106.242C142.78 106.396 142.448 106.623 142.17 106.909C141.893 107.195 141.677 107.535 141.534 107.907C141.392 108.279 141.326 108.676 141.341 109.074Z" fill="white"/>
<path d="M182.672 170.409H156.838L156.081 144.566H181.915L182.672 170.409Z" fill="#F5F5F5"/>
<path d="M266.781 154.826H193.732L193.595 150.01H266.643L266.781 154.826Z" fill="#E0E0E0"/>
<path d="M251.188 164.965H194.033L193.887 160.149H251.051L251.188 164.965Z" fill="#E0E0E0"/>
<path d="M184.031 216.754H158.196L157.439 190.92H183.274L184.031 216.754Z" fill="#F5F5F5"/>
<path d="M221.931 201.18H195.091L194.953 196.355H221.785L221.931 201.18Z" fill="#E0E0E0"/>
<path d="M247.344 201.18H227.607L227.461 196.355H247.207L247.344 201.18Z" fill="#E0E0E0"/>
<path d="M259.307 211.319H195.383L195.245 206.495H259.169L259.307 211.319Z" fill="#E0E0E0"/>
<path d="M185.39 263.108H159.556L158.799 237.265H184.633L185.39 263.108Z" fill="#F5F5F5"/>
<path d="M269.653 252.84H196.604L196.742 257.665H269.791L269.653 252.84Z" fill="#E0E0E0"/>
<path d="M253.467 242.709H196.303L196.449 247.525H253.605L253.467 242.709Z" fill="#E0E0E0"/>
<path d="M171.036 163.692C170.927 163.846 170.781 163.97 170.612 164.052C170.442 164.135 170.255 164.174 170.067 164.165C169.878 164.157 169.695 164.101 169.534 164.003C169.373 163.906 169.239 163.769 169.144 163.606C167.424 160.854 164.259 158.343 162.419 157.096C162.18 156.938 162.009 156.695 161.94 156.416C161.872 156.137 161.911 155.843 162.049 155.591C162.126 155.459 162.23 155.344 162.354 155.254C162.477 155.163 162.619 155.1 162.769 155.068C162.918 155.035 163.073 155.035 163.223 155.065C163.373 155.096 163.515 155.158 163.64 155.247C165.678 156.615 167.546 158.22 169.204 160.029C169.308 160.156 169.439 160.259 169.588 160.33C169.737 160.401 169.9 160.437 170.064 160.437C170.229 160.437 170.392 160.401 170.54 160.33C170.689 160.259 170.82 160.156 170.924 160.029C174.784 155.449 179.188 151.356 184.039 147.843C184.281 147.666 184.584 147.592 184.88 147.637C185.177 147.682 185.443 147.842 185.622 148.083C185.712 148.2 185.779 148.332 185.819 148.475C185.858 148.617 185.869 148.765 185.85 148.911C185.832 149.058 185.785 149.199 185.712 149.327C185.638 149.455 185.541 149.567 185.424 149.657C178.819 154.654 174.123 159.255 171.079 163.692H171.036Z" fill="#1565D8"/>
<path d="M172.396 210.046C172.285 210.198 172.138 210.319 171.968 210.4C171.799 210.48 171.612 210.517 171.424 210.508C171.237 210.499 171.055 210.443 170.894 210.346C170.733 210.249 170.599 210.113 170.504 209.952C168.827 207.2 165.619 204.689 163.77 203.45C163.532 203.29 163.363 203.047 163.296 202.768C163.229 202.489 163.27 202.196 163.409 201.945C163.488 201.814 163.594 201.701 163.719 201.612C163.844 201.523 163.986 201.461 164.136 201.43C164.286 201.399 164.441 201.398 164.591 201.429C164.741 201.46 164.883 201.522 165.008 201.61C167.045 202.972 168.91 204.575 170.564 206.383C170.669 206.509 170.8 206.611 170.949 206.68C171.098 206.75 171.26 206.786 171.424 206.786C171.588 206.786 171.75 206.75 171.899 206.68C172.048 206.611 172.179 206.509 172.284 206.383C176.134 201.808 180.526 197.718 185.365 194.205C185.484 194.116 185.62 194.052 185.764 194.016C185.909 193.98 186.059 193.973 186.206 193.996C186.353 194.018 186.494 194.069 186.622 194.147C186.749 194.224 186.859 194.326 186.947 194.446C187.128 194.68 187.208 194.976 187.171 195.269C187.134 195.563 186.982 195.829 186.749 196.011C180.144 201.016 175.449 205.617 172.404 210.055L172.396 210.046Z" fill="#1565D8"/>
<path d="M173.72 256.495C173.609 256.646 173.462 256.768 173.292 256.848C173.123 256.929 172.936 256.966 172.748 256.957C172.561 256.947 172.379 256.891 172.218 256.794C172.058 256.697 171.923 256.562 171.828 256.4C170.108 253.648 166.943 251.137 165.103 249.899C164.865 249.739 164.695 249.496 164.627 249.218C164.559 248.94 164.596 248.646 164.733 248.394C164.81 248.261 164.914 248.146 165.037 248.056C165.161 247.966 165.303 247.903 165.452 247.87C165.602 247.838 165.757 247.837 165.907 247.868C166.057 247.899 166.199 247.961 166.324 248.05C168.36 249.417 170.227 251.019 171.888 252.823C171.993 252.949 172.124 253.051 172.273 253.121C172.422 253.19 172.584 253.226 172.748 253.226C172.912 253.226 173.074 253.19 173.223 253.121C173.372 253.051 173.503 252.949 173.608 252.823C177.452 248.246 181.842 244.156 186.68 240.645C186.8 240.556 186.935 240.492 187.08 240.456C187.224 240.42 187.374 240.413 187.522 240.436C187.669 240.458 187.81 240.509 187.937 240.587C188.064 240.664 188.175 240.766 188.263 240.886C188.354 241.001 188.422 241.133 188.462 241.275C188.501 241.416 188.512 241.564 188.494 241.71C188.476 241.856 188.428 241.997 188.354 242.124C188.281 242.251 188.182 242.363 188.065 242.451C181.469 247.456 176.764 252.057 173.72 256.495Z" fill="#1565D8"/>
<path d="M233.413 290.998C230.529 291.024 227.724 290.052 225.475 288.246C223.686 287.008 222.035 285.847 218.655 285.847C216.209 285.802 213.832 286.655 211.973 288.246C209.805 290.06 207.059 291.036 204.233 290.998C201.346 291.026 198.538 290.053 196.287 288.246C194.498 287.008 192.847 285.847 189.467 285.847C187.023 285.8 184.647 286.654 182.793 288.246C180.624 290.058 177.879 291.034 175.053 290.998C172.169 291.024 169.364 290.052 167.115 288.246C165.327 287.008 163.675 285.847 160.296 285.847L160.235 283.912C163.122 283.884 165.93 284.857 168.182 286.664C170.1 288.244 172.516 289.094 175.002 289.063C177.445 289.11 179.821 288.256 181.675 286.664C183.855 284.841 186.617 283.864 189.458 283.912C192.342 283.886 195.147 284.858 197.396 286.664C199.185 287.902 200.836 289.063 204.216 289.063C206.659 289.11 209.035 288.256 210.889 286.664C213.07 284.844 215.832 283.867 218.672 283.912C221.559 283.884 224.367 284.857 226.619 286.664C228.408 287.902 230.059 289.063 233.439 289.063L233.413 290.998Z" fill="#EBEBEB"/>
<path d="M246.21 104.817H246.046C244.06 98.513 239.295 94.3334 234.092 94.3334H223.497C222.677 94.3026 221.887 94.0181 221.235 93.519C220.583 93.0199 220.103 92.3309 219.859 91.547C218.44 87.5308 214.957 84.667 210.958 84.667C206.959 84.667 203.631 87.5308 202.419 91.547C202.216 92.3266 201.766 93.0195 201.137 93.5219C200.507 94.0243 199.732 94.309 198.927 94.3334H188.34C183.137 94.3334 178.588 98.513 176.937 104.817H176.782C176.48 104.837 176.184 104.918 175.914 105.054C175.643 105.191 175.402 105.38 175.206 105.611C175.01 105.842 174.862 106.11 174.77 106.399C174.679 106.688 174.647 106.992 174.675 107.294C174.66 107.913 174.884 108.515 175.3 108.974C175.716 109.434 176.293 109.716 176.911 109.762H246.356C246.658 109.742 246.954 109.663 247.225 109.527C247.496 109.392 247.737 109.204 247.934 108.974C248.131 108.744 248.28 108.476 248.373 108.188C248.465 107.899 248.499 107.595 248.472 107.294C248.488 106.668 248.262 106.061 247.84 105.599C247.418 105.137 246.834 104.857 246.21 104.817Z" fill="#263238"/>
<path d="M167.459 126.119L167.915 126.42L168.345 126.618L167.872 127.641C167.603 127.515 167.344 127.368 167.098 127.203C166.913 127.083 166.735 126.953 166.564 126.816C166.087 127.01 165.574 127.1 165.059 127.082C164.28 127.125 163.512 126.873 162.909 126.377C162.588 126.081 162.335 125.72 162.166 125.318C161.997 124.916 161.916 124.482 161.929 124.046C161.87 123.639 161.905 123.224 162.032 122.833C162.158 122.441 162.372 122.084 162.657 121.788C162.943 121.492 163.292 121.264 163.678 121.124C164.065 120.983 164.478 120.933 164.887 120.976C165.301 120.95 165.717 121.005 166.109 121.14C166.502 121.274 166.864 121.484 167.175 121.759C167.684 122.359 167.987 123.107 168.038 123.892C168.089 124.677 167.886 125.458 167.459 126.119ZM166.04 125.182C166.197 124.813 166.259 124.411 166.22 124.012C166.244 123.558 166.113 123.11 165.851 122.739C165.734 122.611 165.59 122.509 165.429 122.442C165.269 122.376 165.095 122.345 164.922 122.352C164.758 122.347 164.594 122.38 164.445 122.448C164.296 122.517 164.165 122.62 164.062 122.748C163.811 123.102 163.703 123.539 163.761 123.969C163.729 124.451 163.859 124.929 164.131 125.328C164.244 125.456 164.385 125.557 164.543 125.624C164.7 125.691 164.871 125.722 165.042 125.715C165.159 125.728 165.278 125.728 165.395 125.715C165.177 125.529 164.926 125.387 164.655 125.293L164.922 124.64C165.052 124.656 165.18 124.691 165.3 124.743C165.487 124.847 165.668 124.962 165.842 125.087L166.04 125.182Z" fill="#263238"/>
<path d="M172.783 121.071H174.58L174.684 124.597C174.705 124.921 174.67 125.247 174.58 125.56C174.489 125.867 174.324 126.148 174.099 126.377C173.897 126.592 173.651 126.759 173.376 126.867C172.967 127.008 172.536 127.075 172.104 127.065C171.79 127.064 171.477 127.044 171.166 127.005C170.868 126.975 170.577 126.894 170.306 126.764C170.063 126.634 169.845 126.462 169.661 126.257C169.485 126.058 169.347 125.827 169.257 125.577C169.142 125.256 169.075 124.92 169.059 124.58L168.956 121.054H170.779L170.882 124.657C170.878 124.796 170.901 124.935 170.951 125.065C171.001 125.195 171.078 125.314 171.175 125.414C171.275 125.508 171.392 125.581 171.521 125.628C171.649 125.675 171.786 125.696 171.923 125.689C172.057 125.696 172.192 125.675 172.317 125.628C172.443 125.581 172.558 125.508 172.654 125.414C172.812 125.211 172.886 124.956 172.86 124.7L172.783 121.071Z" fill="#263238"/>
<path d="M179.31 126.007H177.237L176.979 126.979H175.113L177.16 121.071H179.147L181.546 126.979H179.628L179.31 126.007ZM178.88 124.7L178.166 122.576L177.59 124.7H178.88Z" fill="#263238"/>
<path d="M181.95 121.071H183.773L183.902 125.526H186.758L186.801 126.979H182.122L181.95 121.071Z" fill="#263238"/>
<path d="M187.522 121.071H189.354L189.526 126.979H187.694L187.522 121.071Z" fill="#263238"/>
<path d="M190.249 121.071H195.796L195.839 122.533H193.981L194.11 126.979H192.287L192.15 122.533H190.292L190.249 121.071Z" fill="#263238"/>
<path d="M196.028 121.071H198.058L199.305 123.066L200.44 121.071H202.453L200.26 124.511L200.328 126.979H198.497L198.428 124.511L196.028 121.071Z" fill="#263238"/>
<path d="M209.564 126.007H207.492L207.234 126.979H205.376L207.423 121.071H209.409L211.8 126.979H209.891L209.564 126.007ZM209.151 124.7L208.438 122.576L207.853 124.7H209.151Z" fill="#263238"/>
<path d="M212.007 125.027L213.727 124.915C213.753 125.147 213.835 125.368 213.968 125.56C214.071 125.685 214.203 125.783 214.353 125.846C214.503 125.909 214.666 125.935 214.828 125.921C215.044 125.939 215.259 125.875 215.43 125.741C215.492 125.688 215.542 125.622 215.576 125.548C215.61 125.473 215.628 125.392 215.627 125.311C215.622 125.231 215.6 125.153 215.563 125.082C215.526 125.01 215.475 124.948 215.412 124.898C215.124 124.72 214.802 124.606 214.466 124.562C213.845 124.459 213.256 124.212 212.746 123.84C212.46 123.603 212.27 123.269 212.213 122.901C212.156 122.534 212.236 122.158 212.437 121.845C212.62 121.556 212.892 121.333 213.211 121.208C213.672 121.033 214.163 120.954 214.656 120.976C215.258 120.94 215.858 121.087 216.376 121.398C216.587 121.554 216.763 121.754 216.892 121.984C217.021 122.214 217.1 122.468 217.124 122.731L215.404 122.834C215.375 122.612 215.268 122.408 215.103 122.258C214.925 122.131 214.71 122.067 214.492 122.077C214.322 122.064 214.152 122.109 214.011 122.206C213.962 122.245 213.923 122.295 213.897 122.351C213.872 122.408 213.861 122.471 213.864 122.533C213.866 122.584 213.879 122.633 213.903 122.678C213.927 122.723 213.961 122.761 214.002 122.791C214.191 122.906 214.402 122.979 214.621 123.006C215.213 123.113 215.79 123.289 216.341 123.53C216.655 123.672 216.923 123.898 217.115 124.184C217.276 124.443 217.365 124.74 217.373 125.044C217.385 125.411 217.286 125.774 217.089 126.085C216.887 126.413 216.586 126.669 216.229 126.816C215.778 126.995 215.295 127.08 214.81 127.065C214.06 127.141 213.308 126.932 212.703 126.48C212.309 126.092 212.062 125.578 212.007 125.027Z" fill="#263238"/>
<path d="M217.967 125.027L219.687 124.915C219.715 125.147 219.8 125.369 219.936 125.56C220.035 125.679 220.161 125.774 220.302 125.836C220.444 125.899 220.598 125.928 220.753 125.921C220.969 125.939 221.184 125.875 221.355 125.741C221.418 125.688 221.468 125.622 221.502 125.548C221.536 125.473 221.553 125.392 221.553 125.311C221.548 125.231 221.526 125.153 221.489 125.082C221.452 125.01 221.401 124.948 221.338 124.898C221.05 124.72 220.728 124.606 220.392 124.562C219.77 124.461 219.18 124.213 218.672 123.84C218.501 123.704 218.363 123.531 218.268 123.335C218.173 123.138 218.123 122.923 218.122 122.705C218.112 122.401 218.192 122.102 218.354 121.845C218.543 121.557 218.816 121.335 219.136 121.208C219.597 121.033 220.089 120.954 220.581 120.976C221.184 120.942 221.783 121.088 222.301 121.398C222.513 121.554 222.689 121.754 222.818 121.984C222.947 122.214 223.026 122.468 223.049 122.731L221.329 122.834C221.301 122.61 221.191 122.405 221.02 122.258C220.844 122.128 220.628 122.064 220.409 122.077C220.241 122.065 220.075 122.11 219.936 122.206C219.888 122.246 219.849 122.295 219.822 122.352C219.795 122.408 219.781 122.47 219.781 122.533C219.787 122.584 219.802 122.633 219.827 122.677C219.853 122.721 219.887 122.76 219.928 122.791C220.116 122.906 220.327 122.979 220.547 123.006C221.139 123.113 221.716 123.289 222.267 123.53C222.579 123.674 222.847 123.9 223.041 124.184C223.201 124.443 223.29 124.74 223.299 125.044C223.31 125.411 223.211 125.774 223.015 126.085C222.814 126.414 222.512 126.67 222.155 126.816C221.707 126.995 221.227 127.08 220.745 127.065C219.994 127.141 219.242 126.932 218.638 126.48C218.252 126.088 218.015 125.574 217.967 125.027Z" fill="#263238"/>
<path d="M227.969 121.071H229.792L229.895 124.597C229.907 124.929 229.861 125.261 229.758 125.577C229.666 125.885 229.501 126.165 229.276 126.394C229.074 126.609 228.828 126.776 228.554 126.884C228.144 127.024 227.714 127.091 227.281 127.082C226.968 127.082 226.654 127.062 226.344 127.022C226.045 126.992 225.754 126.911 225.484 126.781C225.241 126.651 225.022 126.479 224.839 126.274C224.667 126.063 224.539 125.82 224.46 125.56C224.345 125.239 224.279 124.903 224.262 124.562L224.159 121.036H225.974L226.086 124.64C226.076 124.92 226.178 125.192 226.369 125.397C226.471 125.49 226.59 125.562 226.72 125.61C226.85 125.657 226.988 125.678 227.126 125.672C227.26 125.679 227.395 125.658 227.521 125.611C227.646 125.564 227.761 125.491 227.857 125.397C227.949 125.295 228.018 125.175 228.059 125.044C228.101 124.914 228.114 124.776 228.098 124.64L227.969 121.071Z" fill="#263238"/>
<path d="M231.193 126.979L231.021 121.071H234.066C234.504 121.056 234.941 121.106 235.364 121.217C235.662 121.315 235.921 121.505 236.104 121.759C236.297 122.04 236.402 122.372 236.405 122.713C236.424 123.012 236.358 123.31 236.216 123.573C236.083 123.811 235.89 124.01 235.657 124.15C235.459 124.262 235.244 124.34 235.021 124.382C235.191 124.428 235.354 124.501 235.502 124.597C235.718 124.799 235.909 125.028 236.07 125.276L237.007 126.996H234.943L233.92 125.19C233.833 125.019 233.716 124.865 233.576 124.734C233.44 124.647 233.282 124.599 233.12 124.597H232.956L233.034 126.996L231.193 126.979ZM232.913 123.47H233.679C233.842 123.458 234.003 123.43 234.16 123.384C234.276 123.361 234.38 123.297 234.453 123.204C234.521 123.102 234.557 122.982 234.556 122.86C234.558 122.776 234.541 122.694 234.507 122.618C234.473 122.542 234.422 122.475 234.358 122.421C234.155 122.297 233.916 122.242 233.679 122.266H232.87L232.913 123.47Z" fill="#263238"/>
<path d="M241.196 126.007H239.123L238.865 126.979H236.999L239.046 121.071H241.032L243.432 126.979H241.514L241.196 126.007ZM240.8 124.7L240.086 122.576L239.51 124.7H240.8Z" fill="#263238"/>
<path d="M243.844 121.071H245.564L247.877 124.339L247.783 121.071H249.503L249.675 126.979H247.955L245.65 123.737L245.744 126.979H244.024L243.844 121.071Z" fill="#263238"/>
<path d="M254.74 124.562L256.357 125.044C256.282 125.449 256.121 125.833 255.884 126.171C255.661 126.467 255.364 126.701 255.024 126.85C254.613 127.019 254.17 127.098 253.725 127.082C253.184 127.101 252.644 127.005 252.143 126.798C251.717 126.574 251.363 126.234 251.12 125.818C250.789 125.274 250.617 124.649 250.621 124.012C250.583 123.608 250.626 123.2 250.749 122.813C250.871 122.426 251.071 122.067 251.335 121.759C251.625 121.485 251.969 121.274 252.345 121.139C252.721 121.005 253.121 120.949 253.519 120.976C254.141 120.942 254.759 121.098 255.291 121.423C255.756 121.771 256.102 122.255 256.28 122.808L254.68 123.169C254.632 123.03 254.569 122.898 254.491 122.774C254.387 122.64 254.255 122.531 254.104 122.455C253.949 122.376 253.779 122.335 253.605 122.335C253.419 122.328 253.234 122.371 253.069 122.458C252.905 122.546 252.766 122.675 252.668 122.834C252.487 123.195 252.412 123.601 252.453 124.003C252.419 124.475 252.536 124.945 252.788 125.345C252.894 125.468 253.026 125.565 253.175 125.629C253.324 125.693 253.486 125.723 253.648 125.715C253.793 125.725 253.938 125.703 254.073 125.651C254.208 125.599 254.33 125.518 254.431 125.414C254.608 125.163 254.715 124.869 254.74 124.562Z" fill="#263238"/>
<path d="M257.14 121.071H262.033V122.335H258.971V123.272H261.809V124.476H258.971V125.646H262.128V126.979H257.148L257.14 121.071Z" fill="#263238"/>
</svg>
